<svg xmlns="http://www.w3.org/2000/svg" width="19.437" height="23.19" viewBox="0 0 19.437 23.19">
  <defs>
    <style>
      .cls-1 {
        fill: #c5c5c5;
        fill-rule: evenodd;
      }
    </style>
  </defs>
  <path id="fa-apple" class="cls-1" d="M989.8,4401.77a4.241,4.241,0,0,1-2.2-1.75,5.335,5.335,0,0,1-.962-3.11,4.954,4.954,0,0,1,.906-2.89,9.088,9.088,0,0,1,1.59-1.65,7.082,7.082,0,0,0-1.45-1.39,5.093,5.093,0,0,0-2.971-.91,7.818,7.818,0,0,0-2.413.48,6.963,6.963,0,0,1-1.994.47,8.847,8.847,0,0,1-1.925-.42,9.158,9.158,0,0,0-2.468-.42,4.814,4.814,0,0,0-3.961,2.01,8.26,8.26,0,0,0-1.576,5.22,14.23,14.23,0,0,0,2.05,7.01c1.381,2.4,2.762,3.62,4.2,3.62a5.127,5.127,0,0,0,1.841-.48,5.346,5.346,0,0,1,1.98-.46,6.142,6.142,0,0,1,2.106.45,6.456,6.456,0,0,0,1.953.44c1.185,0,2.385-.9,3.584-2.73A13.862,13.862,0,0,0,989.8,4401.77Zm-5.244-16.36c0-.09-0.014-0.18-0.014-0.28-0.014-.08-0.042-0.18-0.07-0.3a5.562,5.562,0,0,0-3.487,2.06,6.409,6.409,0,0,0-1.088,3.59,7.469,7.469,0,0,0,1.451-.24,3.992,3.992,0,0,0,1.506-1,5.756,5.756,0,0,0,1.3-1.93A5.305,5.305,0,0,0,984.559,4385.41Z" transform="translate(-970.375 -4384.84)"/>
</svg>
